HIERARCHY
ROOT Hips
{
	OFFSET 0.00000 0.00000 0.00000
	CHANNELS 6 Xposition Yposition Zposition Zrotation Yrotation Xrotation 
	JOINT RightUpLegDummy
	{
		OFFSET 0 0 0
		CHANNELS 3 Zrotation Yrotation Xrotation
		JOINT RightUpLeg
		{
			OFFSET -3.52197 -3.41223 0.04002
			CHANNELS 3 Zrotation Yrotation Xrotation
			JOINT RightLeg
			{
				OFFSET 0.00006 -17.42390 1.60435
				CHANNELS 3 Zrotation Yrotation Xrotation
				JOINT RightFoot
				{
					OFFSET 0.06154 -16.50078 -1.63900
					CHANNELS 3 Zrotation Yrotation Xrotation
					JOINT RightToes
					{
						OFFSET 0.00298 -1.73825 3.34613
						CHANNELS 3 Zrotation Yrotation Xrotation
						End Site
						{
							OFFSET 0.00480 -0.05416 3.85043
						}
					}
				}
			}
		}
	}
	JOINT SpineDummy
	{
		OFFSET 0 0 0
		CHANNELS 3 Zrotation Yrotation Xrotation
		JOINT Spine
		{
			OFFSET 0.00000 4.68130 0.00000
			CHANNELS 3 Zrotation Yrotation Xrotation
			JOINT Spine1
			{
				OFFSET -0.00000 10.10138 0.05002
				CHANNELS 3 Zrotation Yrotation Xrotation
				JOINT HEadDummy
				{
					OFFSET 0 0 0
					CHANNELS 3 Zrotation Yrotation Xrotation
					JOINT Head
					{
						OFFSET -0.00000 3.43865 0.00438
						CHANNELS 3 Zrotation Yrotation Xrotation
						End Site
						{
							OFFSET -0.11417 5.02924 0.98962
						}
					}
				}
				JOINT LeftShoulder1Dummy
				{
					OFFSET 0 0 0
					CHANNELS 3 Zrotation Yrotation Xrotation
					JOINT LeftShoulder1
					{
						OFFSET 3.53937 -0.14262 -0.08662
						CHANNELS 3 Zrotation Yrotation Xrotation
						JOINT LeftArm
						{
							OFFSET 4.04833 -0.00133 0.12681
							CHANNELS 3 Zrotation Yrotation Xrotation
							JOINT LeftForeArm
							{
								OFFSET 10.33880 -0.01036 -0.55515
								CHANNELS 3 Zrotation Yrotation Xrotation
								JOINT LeftHand
								{
									OFFSET 8.69677 0.07543 0.40060
									CHANNELS 3 Zrotation Yrotation Xrotation
									End Site
									{
										OFFSET 5.28377 -0.21905 0.59205
									}
								}
							}
						}
					}
				}
				JOINT RightShoulderDummy
				{
					OFFSET 0 0 0
					CHANNELS 3 Zrotation Yrotation Xrotation
					JOINT RightShoulder
					{
						OFFSET -3.53937 -0.14262 -0.08660
						CHANNELS 3 Zrotation Yrotation Xrotation
						JOINT RightArm
						{
							OFFSET -4.04833 -0.00133 0.12683
							CHANNELS 3 Zrotation Yrotation Xrotation
							JOINT RightForeArm
							{
								OFFSET -10.37987 -0.01039 -0.55511
								CHANNELS 3 Zrotation Yrotation Xrotation
								JOINT RightHand
								{
									OFFSET -8.67398 0.07538 0.40058
									CHANNELS 3 Zrotation Yrotation Xrotation
									End Site
									{
										OFFSET -5.24810 -0.21916 0.59204
									}
								}
							}
						}
					}
				}
			}
		}
	}
	JOINT LeftUpLegDummy
	{
		OFFSET 0 0 0
		CHANNELS 3 Zrotation Yrotation Xrotation
		JOINT LeftUpLeg
		{
			OFFSET 3.52197 -3.41223 0.04002
			CHANNELS 3 Zrotation Yrotation Xrotation
			JOINT LeftLeg
			{
				OFFSET -0.00012 -17.42399 1.60337
				CHANNELS 3 Zrotation Yrotation Xrotation
				JOINT LeftFoot
				{
					OFFSET -0.09972 -16.50070 -1.63802
					CHANNELS 3 Zrotation Yrotation Xrotation
					JOINT LeftToes
					{
						OFFSET -0.01575 -1.73823 3.34611
						CHANNELS 3 Zrotation Yrotation Xrotation
						End Site
						{
							OFFSET 0.03150 -0.01868 3.85031
						}
					}
				}
			}
		}
	}
}
MOTION
Frames: 14
Frame Time: 0.033333
61.3828 38.8127 -6.6506 2.6212 58.9025 -1.8164 0.0000 0.0000 0.0000 -11.8184 -12.3588 -5.7411 -1.3422 -27.7019 2.0046 6.5996 -1.3396 12.3630 0.0000 0.0000 -0.0000 0.0000 0.0000 0.0000 -25.2807 2.0894 -10.7085 4.2693 2.8700 17.1287 0.0000 0.0000 0.0000 6.6090 17.4750 -5.8588 0.0000 0.0000 0.0000 4.1391 12.4360 -0.4326 8.4410 -31.9810 -12.4198 -179.0882 -57.5056 177.7669 1.1921 -1.0787 -0.0567 0.0000 0.0000 0.0000 15.0827 3.2038 1.4706 65.6149 4.5822 39.8077 1.3364 23.0697 -2.9390 -5.1028 1.8919 -0.2927 0.0000 0.0000 0.0000 -5.0933 0.2229 1.8656 -1.0603 3.0633 8.3524 4.7975 -0.1392 -6.8765 0.0000 -0.0000 0.0000
61.3923 38.8127 -6.6481 2.6393 58.9717 -1.7908 0.0000 0.0000 0.0000 -11.8360 -12.3814 -5.7573 -1.4052 -27.7331 2.1012 6.6229 -1.3411 12.3059 0.0000 0.0000 -0.0000 0.0000 0.0000 0.0000 -25.2119 2.0532 -10.7467 4.1710 2.8642 17.1669 0.0000 0.0000 0.0000 6.6919 17.4977 -5.8675 0.0000 0.0000 0.0000 4.1259 12.4019 -0.4306 8.4486 -31.9551 -12.4701 -179.1160 -57.5863 178.1401 1.3565 -1.4397 -0.0671 0.0000 0.0000 0.0000 15.0796 3.1988 1.4688 65.6180 4.6652 39.7965 1.3193 23.0875 -2.9286 -5.0105 1.8976 -0.2964 0.0000 0.0000 0.0000 -5.1124 0.2055 1.8750 -1.0597 3.0068 8.3380 4.8123 -0.1394 -6.8769 0.0000 -0.0000 0.0000
61.4005 38.8110 -6.6425 2.6810 58.9656 -1.7307 0.0000 0.0000 0.0000 -11.8414 -12.4032 -5.8376 -1.4887 -27.6885 2.2470 6.6304 -1.3405 12.2338 0.0000 0.0000 -0.0000 0.0000 0.0000 0.0000 -25.2072 2.0378 -10.8047 4.1176 2.8763 17.2006 0.0000 0.0000 0.0000 6.7636 17.5022 -5.9503 0.0000 0.0000 0.0000 4.1487 12.4284 -0.4285 8.3914 -31.9821 -12.5064 -179.1673 -57.6244 178.7964 1.4719 -2.1111 -0.0765 0.0000 0.0000 0.0000 15.0845 3.1714 1.4632 65.5857 4.7958 39.9959 1.3415 23.0834 -3.2139 -5.0638 1.9384 -0.3026 0.0000 0.0000 0.0000 -5.1289 0.2069 1.8658 -1.0702 3.0027 8.3354 4.8163 -0.1391 -6.8854 0.0000 -0.0000 0.0000
61.4082 38.8097 -6.6350 2.7379 58.9175 -1.6654 0.0000 0.0000 0.0000 -11.8446 -12.4166 -5.9140 -1.5597 -27.6113 2.3692 6.6163 -1.3372 12.1638 0.0000 0.0000 -0.0000 0.0000 0.0000 0.0000 -25.1319 2.0469 -10.8892 3.9563 2.9509 17.2763 0.0000 0.0000 0.0000 6.8563 17.4110 -6.0632 0.0000 0.0000 0.0000 4.2517 12.4833 -0.4267 8.3416 -32.1369 -12.5379 -179.1852 -57.6716 179.0237 1.4839 -2.3527 -0.0804 0.0000 0.0000 0.0000 15.1598 3.1112 1.4546 65.5013 4.9231 40.3570 1.3285 23.1231 -3.5350 -5.2194 2.0585 -0.3168 0.0000 0.0000 0.0000 -5.1470 0.2084 1.8920 -1.0828 3.0392 8.2821 4.7894 -0.1370 -6.8627 0.0000 -0.0000 0.0000
61.4148 38.8110 -6.6265 2.7614 58.8661 -1.6340 0.0000 0.0000 0.0000 -11.8359 -12.4174 -5.9500 -1.5832 -27.5567 2.4166 6.6056 -1.3337 12.1180 0.0000 0.0000 -0.0000 0.0000 0.0000 0.0000 -24.9937 2.0680 -10.9756 3.7686 3.0418 17.3799 0.0000 0.0000 0.0000 6.8482 17.3335 -6.1350 0.0000 0.0000 0.0000 4.2848 12.4669 -0.4244 8.3844 -32.2777 -12.4718 -179.1588 -57.6575 178.6918 1.5146 -1.8619 -0.0794 0.0000 0.0000 0.0000 15.1921 3.0551 1.4442 65.4598 5.0116 40.5842 1.2913 23.1726 -3.6046 -5.3801 2.1558 -0.3308 0.0000 0.0000 0.0000 -5.1466 0.2163 1.9359 -1.0932 3.0750 8.2038 4.7661 -0.1353 -6.8289 0.0000 -0.0000 0.0000
61.4173 38.8141 -6.6159 2.6993 58.8364 -1.6583 0.0000 0.0000 0.0000 -11.7810 -12.3692 -5.9546 -1.5673 -27.5930 2.3704 6.6137 -1.3316 12.1123 0.0000 0.0000 -0.0000 0.0000 0.0000 0.0000 -25.0097 2.0667 -11.0173 3.8591 3.0185 17.4431 0.0000 0.0000 0.0000 6.6228 17.4393 -6.1848 0.0000 0.0000 0.0000 4.1018 12.4216 -0.4365 8.5282 -32.3026 -12.2883 -179.1393 -57.5241 178.4109 1.5486 -1.1879 -0.0770 0.0000 0.0000 0.0000 15.0279 3.0365 1.4303 65.5581 5.0785 40.5081 1.2949 23.1564 -3.4534 -5.5198 2.1695 -0.3404 0.0000 0.0000 0.0000 -5.0931 0.2548 1.9284 -1.1069 3.0552 8.1827 4.7680 -0.1353 -6.8273 0.0000 -0.0000 0.0000
61.4160 38.8175 -6.6024 2.5878 58.8056 -1.7014 0.0000 0.0000 0.0000 -11.6814 -12.2590 -5.9590 -1.5520 -27.6996 2.2657 6.6275 -1.3306 12.1338 0.0000 0.0000 -0.0000 0.0000 0.0000 0.0000 -25.2206 2.0303 -11.0176 4.1793 2.8901 17.4428 0.0000 0.0000 0.0000 6.3745 17.6757 -6.2654 0.0000 0.0000 0.0000 3.9279 12.4891 -0.4537 8.6107 -32.3088 -12.1160 -179.1563 -57.4124 178.6031 1.4879 -0.9944 -0.0729 0.0000 0.0000 0.0000 14.8314 3.0474 1.4209 65.6705 5.1412 40.3521 1.3366 23.1038 -3.4107 -5.6090 2.1177 -0.3441 0.0000 0.0000 0.0000 -5.0102 0.3027 1.8690 -1.1099 3.0165 8.2089 4.7617 -0.1349 -6.8477 0.0000 -0.0000 0.0000
61.4170 38.8210 -6.5881 2.5317 58.7246 -1.6874 0.0000 0.0000 0.0000 -11.6030 -12.1662 -5.9900 -1.5303 -27.7398 2.1672 6.6235 -1.3297 12.1501 0.0000 0.0000 -0.0000 0.0000 0.0000 0.0000 -25.3872 1.9956 -11.0726 4.3598 2.8211 17.4654 0.0000 0.0000 0.0000 6.3977 17.7814 -6.3717 0.0000 0.0000 0.0000 3.9942 12.5770 -0.4528 8.5553 -32.2961 -12.0690 -179.1857 -57.4618 178.9847 1.3754 -1.2816 -0.0675 0.0000 0.0000 0.0000 14.8005 3.0604 1.4219 65.6721 5.1827 40.3437 1.3757 23.0721 -3.5892 -5.5718 1.9893 -0.3366 0.0000 0.0000 0.0000 -4.9715 0.3053 1.8269 -1.0826 3.0673 8.1829 4.7427 -0.1338 -6.8424 0.0000 -0.0000 0.0000
61.4234 38.8247 -6.5752 2.5748 58.5952 -1.5938 0.0000 0.0000 0.0000 -11.6068 -12.1911 -6.0358 -1.4353 -27.6227 2.0934 6.6122 -1.3301 12.1535 0.0000 0.0000 -0.0000 0.0000 0.0000 0.0000 -25.4468 2.0122 -11.2184 4.4623 2.8442 17.5555 0.0000 0.0000 0.0000 6.5623 17.6273 -6.4528 0.0000 0.0000 0.0000 3.9104 12.4128 -0.4513 8.6881 -32.0851 -12.1526 -179.1927 -57.5586 179.0927 1.2788 -1.5848 -0.0628 0.0000 0.0000 0.0000 14.6450 3.0786 1.4165 65.7692 5.1639 40.2364 1.4331 23.0070 -3.5629 -5.3941 1.7795 -0.3173 0.0000 0.0000 0.0000 -5.0003 0.2606 1.8343 -1.0454 3.2211 8.0747 4.7660 -0.1354 -6.8029 0.0000 -0.0000 0.0000
61.4301 38.8278 -6.5641 2.6486 58.4826 -1.4928 0.0000 0.0000 0.0000 -11.6738 -12.3155 -6.0437 -1.2456 -27.4358 2.0015 6.6412 -1.3373 12.1684 0.0000 0.0000 -0.0000 0.0000 0.0000 0.0000 -25.6574 2.0790 -11.2986 4.9449 2.7921 17.5653 0.0000 0.0000 0.0000 6.4566 17.3979 -6.4863 0.0000 0.0000 0.0000 3.2064 12.0360 -0.4846 9.3003 -31.7225 -12.3139 -179.1739 -57.5276 178.8519 1.2262 -1.6486 -0.0598 0.0000 0.0000 0.0000 14.0570 3.1399 1.3940 66.1342 5.0449 39.7322 1.5321 22.8637 -2.9817 -5.1891 1.6156 -0.2987 0.0000 0.0000 0.0000 -5.0378 0.2272 1.8597 -1.0377 3.3581 7.9703 4.8375 -0.1402 -6.7669 0.0000 -0.0000 0.0000
61.4323 38.8298 -6.5530 2.6715 58.4326 -1.4634 0.0000 0.0000 0.0000 -11.7300 -12.4157 -5.9810 -1.0436 -27.3360 1.8605 6.7271 -1.3576 12.2088 0.0000 0.0000 -0.0000 0.0000 0.0000 0.0000 -26.0637 2.1377 -11.1666 5.6989 2.6157 17.3524 0.0000 0.0000 0.0000 6.1028 17.3175 -6.4815 0.0000 0.0000 0.0000 2.3743 11.8243 -0.5339 9.9701 -31.5403 -12.4578 -179.1464 -57.4258 178.4761 1.3620 -1.5531 -0.0677 0.0000 0.0000 0.0000 13.5198 3.2418 1.3824 66.3834 4.8442 39.2231 1.5952 22.7571 -2.3268 -5.1031 1.6577 -0.2950 0.0000 0.0000 0.0000 -5.0329 0.2316 1.8751 -1.0518 3.3983 7.9438 4.8819 -0.1433 -6.7612 0.0000 -0.0000 0.0000
61.4340 38.8318 -6.5408 2.6353 58.4172 -1.5022 0.0000 0.0000 0.0000 -11.7295 -12.4171 -5.8847 -0.9204 -27.3554 1.7054 6.8126 -1.3781 12.2537 0.0000 0.0000 -0.0000 0.0000 0.0000 0.0000 -26.3094 2.1382 -10.9449 6.0340 2.4874 17.0647 0.0000 0.0000 0.0000 5.9475 17.4005 -6.4459 0.0000 0.0000 0.0000 2.3151 11.9081 -0.5437 10.0201 -31.6331 -12.4688 -179.1214 -57.3974 178.1578 1.7455 -1.3847 -0.0894 0.0000 0.0000 0.0000 13.7178 3.3068 1.4080 66.0736 4.6818 39.3043 1.5718 22.7795 -2.2940 -5.1732 1.8470 -0.3061 0.0000 0.0000 0.0000 -5.0022 0.2375 1.8822 -1.0400 3.4014 7.9780 4.8695 -0.1427 -6.7822 0.0000 -0.0000 0.0000
61.4406 38.8326 -6.5286 2.5698 58.3746 -1.5620 0.0000 0.0000 0.0000 -11.6807 -12.3544 -5.8193 -0.8758 -27.3973 1.5896 6.8383 -1.3846 12.2772 0.0000 0.0000 -0.0000 0.0000 0.0000 0.0000 -26.2206 2.0905 -10.8895 5.8283 2.4885 17.0002 0.0000 0.0000 0.0000 6.0863 17.5729 -6.4201 0.0000 0.0000 0.0000 2.8239 12.0159 -0.5125 9.6293 -31.7192 -12.3735 -179.1144 -57.4046 178.0683 1.9906 -1.1989 -0.1021 0.0000 0.0000 0.0000 14.3159 3.2860 1.4406 65.5320 4.6862 39.7164 1.5724 22.8060 -2.6658 -5.3040 1.9376 -0.3178 0.0000 0.0000 0.0000 -4.9714 0.2322 1.8838 -0.9967 3.4444 8.0246 4.8594 -0.1423 -6.8207 0.0000 -0.0000 0.0000
61.4499 38.8330 -6.5180 2.4927 58.2799 -1.6233 0.0000 0.0000 0.0000 -11.6095 -12.2810 -5.8071 -0.8648 -27.3865 1.5305 6.8248 -1.3854 12.2798 0.0000 0.0000 -0.0000 0.0000 0.0000 0.0000 -26.1068 2.0425 -11.0385 5.7590 2.4746 17.2036 0.0000 0.0000 0.0000 6.1340 17.8145 -6.4778 0.0000 0.0000 0.0000 2.8762 12.0027 -0.5077 9.6048 -31.6603 -12.3933 -179.1393 -57.3624 178.3658 1.6561 -1.2204 -0.0835 0.0000 0.0000 0.0000 14.3742 3.2462 1.4358 65.4612 4.8287 39.7260 1.6819 22.7059 -2.7181 -5.3818 1.8267 -0.3187 0.0000 0.0000 0.0000 -4.9283 0.2581 1.8833 -0.9728 3.5067 8.0606 4.8718 -0.1432 -6.8667 0.0000 -0.0000 0.0000
